<svg id="Capa_1" enable-background="new 0 0 512 512" height="512" viewBox="0 0 512 512" width="512" xmlns="http://www.w3.org/2000/svg"><g><path d="m271.55 512h-31.1c-11.562 0-20.935-9.373-20.935-20.935v-65.774h72.969v65.774c0 11.562-9.372 20.935-20.934 20.935z" fill="#f5f0f0"/><path d="m262.031 512h-21.582c-11.559 0-20.933-9.375-20.933-20.933v-65.777h21.582v65.777c0 11.558 9.374 20.933 20.933 20.933z" fill="#e8ded8"/><path d="m257.784 448.928c-1.189.002-2.379.002-3.568 0-101.412-.133-184.223-81.602-186.046-182.997-1.013-56.381.04-112.761 3.16-169.142 2.77-50.028 42.324-90.257 92.314-93.653 61.571-4.182 123.141-4.182 184.712 0 49.99 3.395 89.544 43.624 92.313 93.653 3.12 56.381 4.174 112.761 3.16 169.142-1.822 101.396-84.633 182.864-186.045 182.997z" fill="#a2c6fd"/><path d="m238.046 448.211c-93.901-8.221-168.156-86.329-169.877-182.28-1.01-56.382.041-112.764 3.163-169.146 2.771-50.026 42.33-90.254 92.315-93.654 1.329-.093 2.668-.175 3.997-.268-38.488 13.063-66.478 48.511-68.816 90.8-3.194 57.762-4.275 115.525-3.235 173.287 1.565 87.257 61.676 160.112 142.453 181.261z" fill="#7898d5"/><path d="m334.345 293.293c28.905 0 45.046 33.839 26.427 55.947-2.747 3.262-5.661 6.411-8.738 9.438-25.353 24.941-58.844 38.694-94.313 38.745h-3.441c-35.469-.052-68.96-13.804-94.313-38.745-2.882-2.835-5.622-5.779-8.215-8.821-18.995-22.284-3.365-56.565 25.916-56.565h156.677z" fill="#f5f0f0"/><path d="m344.865 54.527c-29.484-2.003-59.383-3.018-88.865-3.018s-59.381 1.016-88.865 3.018c-23.964 1.627-43.04 21.02-44.374 45.109-2.072 37.454-3.2 75.261-3.399 112.937-.123 23.329 17.208 43.445 40.416 45.823.576.059 1.155.108 1.736.148 31.349 2.129 63.139 3.209 94.485 3.209s63.136-1.08 94.485-3.209c.582-.039 1.16-.089 1.736-.148 23.207-2.378 40.539-22.494 40.416-45.823-.199-37.676-1.326-75.483-3.399-112.937-1.332-24.089-20.408-43.482-44.372-45.109z" fill="#edf9f9"/><path d="m162.98 258.637c-.484-.031-.979-.062-1.463-.093-.587-.041-1.164-.093-1.741-.144-23.2-2.38-40.538-22.499-40.414-45.822.196-37.684 1.329-75.492 3.4-112.939 1.329-24.096 20.408-43.484 44.37-45.112.309-.021.608-.041.917-.062-13.671 8.355-23.097 23.715-24.024 41.475-2.071 39.878-3.194 80.138-3.4 120.263-.092 17.792 8.788 33.843 22.355 42.434z" fill="#dcf1f4"/><path d="m256 269.479c-31.522 0-63.488-1.086-95.009-3.226-.671-.046-1.337-.103-1.998-.171-13.125-1.345-25.194-7.613-33.984-17.651-8.694-9.927-13.443-22.676-13.373-35.899.201-37.92 1.348-76.047 3.41-113.323 1.549-27.976 23.717-50.499 51.565-52.39 29.66-2.014 59.735-3.036 89.389-3.036s59.728 1.022 89.389 3.036c27.848 1.891 50.016 24.414 51.564 52.39 2.063 37.277 3.21 75.404 3.41 113.323.07 13.223-4.68 25.972-13.373 35.899-8.791 10.038-20.859 16.306-33.982 17.651-.664.068-1.329.125-1.998.17-31.522 2.142-63.488 3.227-95.01 3.227zm0-210.244c-29.306 0-59.029 1.01-88.342 3.001-20.079 1.363-36.064 17.625-37.183 37.827-2.049 37.02-3.188 74.888-3.387 112.551-.102 19.428 14.603 36.162 33.477 38.097.488.05.98.092 1.475.126 31.171 2.117 62.784 3.191 93.959 3.191 31.174 0 62.787-1.073 93.961-3.191.492-.034.984-.075 1.475-.125 18.873-1.934 33.577-18.668 33.475-38.097-.199-37.663-1.338-75.531-3.387-112.551-1.118-20.202-17.103-36.464-37.182-37.827-29.312-1.992-59.035-3.002-88.341-3.002z" fill="#7898d5"/><g fill="#dd636e"><path d="m168.928 150.334c-4.267 0-7.726-3.459-7.726-7.726v-38.272c0-4.267 3.459-7.726 7.726-7.726s7.726 3.459 7.726 7.726v38.272c0 4.267-3.459 7.726-7.726 7.726z"/><path d="m218.414 97.105h-38.273c-4.267 0-7.726-3.459-7.726-7.726s3.459-7.726 7.726-7.726h38.273c4.267 0 7.726 3.459 7.726 7.726 0 4.266-3.459 7.726-7.726 7.726z"/><path d="m231.518 217.324c-4.267 0-7.726-3.459-7.726-7.726v-38.273c0-4.267 3.459-7.726 7.726-7.726s7.726 3.459 7.726 7.726v38.273c0 4.267-3.459 7.726-7.726 7.726z"/><path d="m218.414 164.095h-38.273c-4.267 0-7.726-3.459-7.726-7.726s3.459-7.726 7.726-7.726h38.273c4.267 0 7.726 3.459 7.726 7.726s-3.459 7.726-7.726 7.726z"/><path d="m218.414 231.085h-38.273c-4.267 0-7.726-3.459-7.726-7.726s3.459-7.726 7.726-7.726h38.273c4.267 0 7.726 3.459 7.726 7.726 0 4.266-3.459 7.726-7.726 7.726z"/></g><g fill="#dd636e"><path d="m277.867 150.334c-4.267 0-7.726-3.459-7.726-7.726v-38.272c0-4.267 3.459-7.726 7.726-7.726s7.726 3.459 7.726 7.726v38.272c.001 4.267-3.459 7.726-7.726 7.726z"/><path d="m327.353 97.105h-38.273c-4.267 0-7.726-3.459-7.726-7.726s3.459-7.726 7.726-7.726h38.273c4.267 0 7.726 3.459 7.726 7.726.001 4.266-3.459 7.726-7.726 7.726z"/><path d="m340.457 217.324c-4.267 0-7.726-3.459-7.726-7.726v-38.273c0-4.267 3.459-7.726 7.726-7.726s7.726 3.459 7.726 7.726v38.273c.001 4.267-3.459 7.726-7.726 7.726z"/><path d="m327.353 164.095h-38.273c-4.267 0-7.726-3.459-7.726-7.726s3.459-7.726 7.726-7.726h38.273c4.267 0 7.726 3.459 7.726 7.726s-3.459 7.726-7.726 7.726z"/><path d="m327.353 231.085h-38.273c-4.267 0-7.726-3.459-7.726-7.726s3.459-7.726 7.726-7.726h38.273c4.267 0 7.726 3.459 7.726 7.726.001 4.266-3.459 7.726-7.726 7.726z"/><path d="m261.625 231.085h-.515c-4.267 0-7.726-3.459-7.726-7.726s3.459-7.726 7.726-7.726h.515c4.267 0 7.726 3.459 7.726 7.726 0 4.266-3.459 7.726-7.726 7.726z"/></g><path d="m372.495 309.95c-6.997-15.041-21.615-24.384-38.15-24.384h-156.677c-16.535 0-31.105 9.312-38.024 24.301-6.962 15.083-4.576 32.327 6.228 45.002 2.732 3.206 5.651 6.34 8.676 9.316 26.797 26.361 62.212 40.909 99.732 40.964h3.452c37.509-.055 72.924-14.603 99.72-40.964 3.227-3.175 6.332-6.529 9.229-9.969 10.493-12.457 12.72-29.42 5.814-44.266zm-214.863 34.896c-6.848-8.034-8.365-18.955-3.958-28.502 4.429-9.596 13.399-15.325 23.994-15.325h70.699v88.53c-31.228-1.479-60.503-14.267-82.981-36.379-2.704-2.659-5.312-5.46-7.754-8.324zm197.23-.583c-2.588 3.073-5.363 6.069-8.247 8.907-22.436 22.071-51.643 34.854-82.796 36.373v-88.524h70.526c10.457 0 19.706 5.92 24.139 15.449 4.408 9.477 3.055 19.867-3.622 27.795z" fill="#7898d5"/><g fill="#e8ded8"><path d="m290.188 368.598c-1.977 0-3.955-.755-5.463-2.263-3.018-3.017-3.018-7.909 0-10.927l14.75-14.749-14.75-14.75c-3.018-3.017-3.018-7.909 0-10.927 3.017-3.017 7.909-3.017 10.927 0l20.213 20.213c3.018 3.017 3.018 7.909 0 10.927l-20.213 20.213c-1.51 1.509-3.487 2.263-5.464 2.263z"/><path d="m221.99 368.598c-1.977 0-3.955-.755-5.463-2.263l-20.213-20.213c-3.018-3.017-3.018-7.909 0-10.927l20.213-20.213c3.017-3.017 7.909-3.017 10.927 0s3.018 7.909 0 10.927l-14.749 14.75 14.749 14.749c3.018 3.017 3.018 7.909 0 10.927-1.509 1.509-3.487 2.263-5.464 2.263z"/></g><g><path d="m339.29 440.709c0 .991.017 1.979.051 2.962 1.488 43.126 66.584 43.126 68.071 0 .034-.983.051-1.971.051-2.962 0-27.76-13.403-52.386-34.087-67.772-20.683 15.386-34.086 40.012-34.086 67.772z" fill="#dd636e"/><path d="m373.379 476.018c-16.643 0-33.293-10.781-34.037-32.348-.032-.984-.052-1.967-.052-2.957 0-27.76 13.401-52.389 34.089-67.776-7.357 15.388-12.12 40.016-12.12 67.776 0 .99.006 1.974.013 2.957.265 21.567 6.186 32.348 12.107 32.348z" fill="#da4a54"/></g></g></svg>