<?xml version="1.0" encoding="iso-8859-1"?>
<!-- Generator: Adobe Illustrator 19.0.0, SVG Export Plug-In . SVG Version: 6.00 Build 0)  -->
<svg version="1.1" id="Capa_1" xmlns="http://www.w3.org/2000/svg" xmlns:xlink="http://www.w3.org/1999/xlink" x="0px" y="0px"
	 viewBox="0 0 512 512" style="enable-background:new 0 0 512 512;" xml:space="preserve">
<path style="fill:#F05642;" d="M303.1,186.95c-28.1,0-40.7,15.8-45.7,25c-0.6,1.2-2.3,1.2-2.9,0c-4.9-9.3-17.5-25-45.6-25
	c-32,0-60.2,21.9-60.2,61.8c0,16.1,3.3,30,12.4,45.4c18.6,31.5,79.9,67.9,92.5,75.9c1.4,0.9,3.2,0.9,4.6,0
	c12.6-8,73.9-44.2,92.7-75.9c9.1-15.4,12.4-29.3,12.4-45.4C363.3,208.75,335.1,186.95,303.1,186.95z"/>
<path d="M255.9,380.65c-2.7,0-5.3-0.7-7.7-2.2c-1.1-0.7-2.5-1.6-4.2-2.6c-31.5-19.7-75.2-49-91.6-76.7
	c-9.4-16.1-13.7-31.7-13.7-50.5c0-21.6,7.3-40,21.2-53.1c12.7-12,30.1-18.7,49-18.7c24.2,0,38.8,10.4,47.1,19.8
	c8.3-9.4,22.9-19.8,47.1-19.8c18.9,0,36.3,6.6,49,18.6c13.9,13.1,21.2,31.5,21.2,53.1c0,18.8-4.3,34.4-13.8,50.5
	c-16.5,27.9-60.3,57.2-91.8,76.7c-1.7,1-3.1,1.9-4.1,2.6C261.2,379.95,258.6,380.65,255.9,380.65z M208.9,196.95
	c-25,0-50.2,16-50.2,51.8c0,15.2,3.3,27.3,11,40.3c15.8,26.7,67.9,59.2,85,69.9c0.4,0.3,0.8,0.5,1.2,0.8c0.4-0.2,0.8-0.5,1.2-0.7
	c17.1-10.6,69.3-43,85.2-69.9c7.7-13,11-25.1,11-40.3c0-35.8-25.2-51.8-50.2-51.8c-21.7,0-32,10.7-36.9,19.7c-2,3.8-6,6.1-10.3,6.1
	l0,0c-4.3,0-8.3-2.4-10.3-6.2C240.8,207.65,230.6,196.95,208.9,196.95z"/>
<path style="fill:#FFD3AE;" d="M303.8,34.95H120.9c-11.6,0-22.5,5.4-29.6,14.6l-38.8,50.7v37.8v5.8v35.2h69.9
	c10.4,0,20.4-4.1,27.8-11.4l48.4-47.6c8.7-8.7,9.3-22.3,2-31.8l0,0h103.2c14.7,0,26.6-11.9,26.6-26.6v-0.1
	C330.4,46.85,318.5,34.95,303.8,34.95z M137.6,112.65L137.6,112.65L137.6,112.65L137.6,112.65z M198.5,85.85
	c-9.4-9.4-24.7-9.4-34.1,0l0,0C173.8,76.45,189.1,76.45,198.5,85.85L198.5,85.85c0.1,0.1,0.1,0.1,0.1,0.1
	C198.6,85.95,198.6,85.95,198.5,85.85L198.5,85.85z"/>
<path d="M112.7,147.55c-0.7,0-1.3-0.1-1.9-0.2c-0.6-0.1-1.3-0.3-1.9-0.6c-0.6-0.3-1.2-0.6-1.7-0.9c-0.6-0.4-1.1-0.8-1.5-1.2
	s-0.9-1-1.3-1.5c-0.4-0.5-0.7-1.1-0.9-1.7c-0.3-0.6-0.4-1.2-0.6-1.9s-0.2-1.3-0.2-2c0-0.6,0.1-1.3,0.2-2c0.1-0.6,0.3-1.3,0.6-1.9
	c0.3-0.6,0.6-1.2,0.9-1.7c0.4-0.5,0.8-1.1,1.3-1.5c0.5-0.5,1-0.9,1.5-1.3s1.1-0.7,1.7-0.9c0.6-0.3,1.2-0.4,1.9-0.6
	c1.3-0.3,2.6-0.3,3.9,0c0.6,0.1,1.3,0.3,1.9,0.6c0.6,0.3,1.2,0.6,1.7,0.9c0.6,0.4,1.1,0.8,1.5,1.3c0.5,0.5,0.9,1,1.2,1.5
	c0.4,0.5,0.7,1.1,0.9,1.7c0.3,0.6,0.4,1.2,0.6,1.9c0.1,0.6,0.2,1.3,0.2,2s-0.1,1.3-0.2,2c-0.1,0.6-0.3,1.3-0.6,1.9
	c-0.3,0.6-0.6,1.2-0.9,1.7c-0.4,0.6-0.8,1.1-1.2,1.5s-1,0.9-1.5,1.2c-0.5,0.4-1.1,0.7-1.7,0.9c-0.6,0.3-1.2,0.4-1.9,0.6
	C114,147.55,113.3,147.55,112.7,147.55z"/>
<rect x="10" y="79.15" style="fill:#F05642;" width="42.5" height="99.9"/>
<path d="M303.8,24.95H120.9c-14.6,0-28.6,6.9-37.5,18.5l-22.9,29.8c-1.8-2.5-4.8-4.1-8.1-4.1H10c-5.5,0-10,4.5-10,10v99.9
	c0,5.5,4.5,10,10,10h42.5h69.9c13.1,0,25.4-5.1,34.8-14.2l48.5-47.7c7.9-7.9,11.1-18.6,9.7-28.8h88.5c20.2,0,36.6-16.4,36.6-36.6
	v-0.1C340.4,41.35,324,24.95,303.8,24.95z M20,89.15h22.5v79.9H20V89.15z M320.4,61.65c0,9.2-7.4,16.6-16.6,16.6H205
	c-0.1-0.1-0.3-0.2-0.4-0.4c-0.2-0.2-0.4-0.4-0.6-0.5c-0.2-0.2-0.5-0.4-0.8-0.6c-0.2-0.1-0.3-0.3-0.5-0.4c-0.3-0.3-0.6-0.5-1-0.7
	c-0.1-0.1-0.2-0.2-0.3-0.2c-0.4-0.3-0.9-0.6-1.3-0.9l0,0c-5.5-3.7-12-5.6-18.8-5.6c-7.9,0-15.4,2.7-21.5,7.6l0,0
	c-0.4,0.3-0.8,0.6-1.1,1c-0.1,0.1-0.1,0.1-0.2,0.2c-0.4,0.4-0.8,0.8-1.3,1.2l-26.8,26.8c-3.9,3.9-3.9,10.2,0,14.1
	c3.9,3.9,10.2,3.9,14.1,0l26.8-26.8c0.3-0.3,0.7-0.7,1.1-1c0.1,0,0.1-0.1,0.2-0.1c0.3-0.3,0.6-0.5,1-0.7c0,0,0,0,0.1,0
	c3.1-2,6.8-2.7,10.3-2.1c0,0,0,0,0.1,0c0.4,0.1,0.7,0.2,1,0.3c0.1,0,0.2,0,0.3,0.1c0.3,0.1,0.5,0.2,0.8,0.3c0.2,0.1,0.3,0.1,0.5,0.2
	c0.2,0.1,0.4,0.2,0.5,0.3c0.2,0.1,0.5,0.2,0.7,0.3c0.1,0,0.2,0.1,0.3,0.2c0.3,0.2,0.6,0.4,0.9,0.6l0,0c0.8,0.5,1.5,1.1,2.1,1.8l0,0
	l0,0c0.2,0.2,0.4,0.5,0.6,0.7c0.2,0.2,0.4,0.4,0.6,0.7c0,0,0,0,0.1,0.1c1.9,2.4,2.9,5.4,2.9,8.5c0,3.8-1.5,7.3-4.1,9.9l-48.4,47.6
	c-5.6,5.5-12.9,8.5-20.8,8.5H62.5v-31.1v-34.4l36.8-48c5.1-6.7,13.2-10.7,21.6-10.7h182.9C313,45.05,320.4,52.45,320.4,61.65
	L320.4,61.65L320.4,61.65z"/>
<path style="fill:#FFD3AE;" d="M459.5,333.05h-69.9c-10.4,0-20.4,4.1-27.8,11.4l-48.4,47.6c-8.7,8.7-9.3,22.3-2,31.8l0,0H208.2
	c-14.7,0-26.6,11.9-26.6,26.6v0.1c0,14.7,11.9,26.6,26.6,26.6h182.9c11.6,0,22.5-5.4,29.6-14.6l38.9-50.7v-37.8l0,0l0,0v-41H459.5z
	 M347.6,426.25c-9.4,9.4-24.7,9.4-34.1,0l-0.1-0.1c0,0,0,0,0-0.1l0,0l0.1,0.1C322.9,435.65,338.2,435.65,347.6,426.25L347.6,426.25z
	"/>
<path d="M399.3,384.55c-0.6,0-1.3-0.1-2-0.2s-1.3-0.3-1.9-0.6s-1.2-0.6-1.7-0.9c-0.5-0.4-1.1-0.8-1.5-1.3c-1.9-1.9-2.9-4.4-2.9-7.1
	c0-0.7,0.1-1.3,0.2-2s0.3-1.3,0.6-1.9c0.3-0.6,0.6-1.2,0.9-1.7c0.4-0.5,0.8-1.1,1.3-1.5c0.5-0.4,1-0.9,1.5-1.2
	c0.5-0.4,1.1-0.7,1.7-0.9c0.6-0.3,1.2-0.4,1.9-0.6c1.3-0.3,2.6-0.3,3.9,0c0.6,0.1,1.3,0.3,1.9,0.6c0.6,0.3,1.2,0.6,1.7,0.9
	c0.5,0.4,1.1,0.8,1.5,1.2s0.9,1,1.2,1.5c0.4,0.5,0.7,1.1,0.9,1.7c0.3,0.6,0.5,1.2,0.6,1.9c0.1,0.6,0.2,1.3,0.2,2
	c0,2.6-1.1,5.2-2.9,7.1c-0.5,0.5-1,0.9-1.5,1.3c-0.5,0.4-1.1,0.7-1.7,0.9c-0.6,0.3-1.2,0.4-1.9,0.6
	C400.6,384.45,400,384.55,399.3,384.55z"/>
<rect x="459.5" y="333.05" style="fill:#2C4D77;" width="42.5" height="99.9"/>
<path d="M502,323.05h-42.5h-69.9c-13.1,0-25.5,5.1-34.8,14.2l-48.5,47.7c-6.4,6.4-10,15-10,24.1c0,1.6,0.1,3.2,0.3,4.7h-88.5
	c-20.2,0-36.6,16.4-36.6,36.6v0.1c0,20.2,16.4,36.6,36.6,36.6H391c14.6,0,28.6-6.9,37.5-18.5l22.9-29.8c1.8,2.5,4.8,4.1,8.1,4.1H502
	c5.5,0,10-4.5,10-10v-99.8C512,327.55,507.5,323.05,502,323.05z M412.7,456.45c-5.1,6.7-13.2,10.7-21.6,10.7H208.2
	c-9.2,0-16.6-7.4-16.6-16.6v-0.1c0-9.2,7.4-16.6,16.6-16.6H307c0.1,0.1,0.3,0.2,0.4,0.4c0.2,0.2,0.4,0.4,0.6,0.5
	c0.2,0.2,0.5,0.4,0.7,0.6c0.2,0.1,0.3,0.3,0.5,0.4c0.3,0.3,0.6,0.5,0.9,0.7c0.1,0.1,0.2,0.2,0.3,0.3c0.4,0.3,0.9,0.6,1.3,0.9l0,0
	c5.5,3.7,12,5.6,18.8,5.6c7.9,0,15.4-2.7,21.5-7.6l0,0c0.4-0.3,0.8-0.6,1.1-1c0.1-0.1,0.1-0.1,0.2-0.2c0.4-0.4,0.8-0.8,1.3-1.2
	l26.4-26.2c3.9-3.9,3.9-10.2,0-14.1c-3.9-3.9-10.2-3.9-14.1,0l-26.3,26.3c-0.3,0.3-0.7,0.7-1.1,1c-0.1,0-0.1,0.1-0.2,0.1
	c-0.3,0.3-0.6,0.5-1,0.7l0,0c-3.1,2-6.8,2.7-10.3,2.1c0,0,0,0-0.1,0c-0.4-0.1-0.7-0.2-1-0.3c-0.1,0-0.2,0-0.3-0.1
	c-0.3-0.1-0.5-0.2-0.8-0.3c-0.2-0.1-0.3-0.1-0.5-0.2c-0.2-0.1-0.4-0.2-0.5-0.3c-0.2-0.1-0.5-0.2-0.7-0.3c-0.1,0-0.2-0.1-0.3-0.2
	c-0.3-0.2-0.6-0.4-0.9-0.6l0,0c-0.8-0.5-1.5-1.1-2.1-1.8l0,0l0,0c-0.2-0.2-0.4-0.5-0.7-0.7c-0.2-0.2-0.3-0.4-0.5-0.7
	c0,0,0,0-0.1-0.1c-1.9-2.4-2.9-5.4-2.9-8.5c0-3.8,1.5-7.3,4.1-9.9l48.4-47.6c5.6-5.5,12.9-8.5,20.8-8.5h59.9v31.1v34.4L412.7,456.45
	z M492,422.95h-22.5v-79.9H492V422.95z"/>
<g>
</g>
<g>
</g>
<g>
</g>
<g>
</g>
<g>
</g>
<g>
</g>
<g>
</g>
<g>
</g>
<g>
</g>
<g>
</g>
<g>
</g>
<g>
</g>
<g>
</g>
<g>
</g>
<g>
</g>
</svg>
