<svg id="Layer_1" enable-background="new 0 0 128 128" height="512" viewBox="0 0 128 128" width="512" xmlns="http://www.w3.org/2000/svg"><g><g fill="#e6e7e8"><path d="m105.606 44.929h-15.251c-.526-12.979-11.244-23.378-24.351-23.378s-23.824 10.398-24.351 23.378h-15.259c-3.072 0-5.572 2.499-5.572 5.571v69.56c0 3.072 2.5 5.571 5.572 5.571h79.212c3.072 0 5.571-2.499 5.571-5.571v-69.56c.001-3.072-2.498-5.571-5.571-5.571z"/><path d="m42.126 24.824h6.815c1.56 0 2.828-1.27 2.828-2.829s-1.269-2.828-2.828-2.828h-.323c4.828-4.563 11.223-7.141 17.872-7.141 8.311 0 16.196 4.035 21.095 10.795.881 1.216 2.731 1.515 3.95.629.611-.442 1.014-1.098 1.133-1.844s-.06-1.494-.503-2.106c-5.959-8.222-15.558-13.131-25.675-13.131-7.979 0-15.707 3.066-21.555 8.484-.162-1.407-1.36-2.503-2.81-2.503-1.56 0-2.829 1.269-2.829 2.828v6.816c.001 1.561 1.27 2.83 2.83 2.83z"/></g><g><g><path d="m101.606 41.929h-16.225c-.001 12.889-10.487 23.376-23.376 23.376s-23.377-10.487-23.378-23.376h-16.233c-2.524 0-4.572 2.048-4.572 4.572v69.559c0 2.524 2.048 4.572 4.572 4.572h79.212c2.533 0 4.572-2.048 4.572-4.572v-69.56c0-2.523-2.039-4.571-4.572-4.571z" fill="#6dc9f7"/><path d="m101.606 117.631h-79.212c-2.524 0-4.572-2.048-4.572-4.572v3c0 2.524 2.048 4.572 4.572 4.572h79.212c2.533 0 4.572-2.048 4.572-4.572v-3c0 2.524-2.039 4.572-4.572 4.572z" fill="#fff"/><path d="m58.088 74.513v36.061c0 2.525-2.047 4.572-4.572 4.572h-24.503c-2.597 0-4.709-2.103-4.709-4.709v-58.313c0-2.606 2.112-4.709 4.709-4.709h.009c2.066 0 3.858 1.353 4.489 3.31 3.079 9.595 11.044 17.017 20.945 19.314 2.107.489 3.632 2.311 3.632 4.474z" fill="#0089ef"/><path d="m99.688 52.124v58.313c0 2.606-2.103 4.709-4.7 4.709h-24.504c-2.525 0-4.572-2.047-4.572-4.572v-36.063c0-2.162 1.524-3.984 3.63-4.473 9.91-2.303 17.876-9.724 20.947-19.313.631-1.957 2.432-3.31 4.498-3.31 1.298 0 2.478.521 3.319 1.381.86.85 1.382 2.029 1.382 3.328z" fill="#0089ef"/><path d="m62.005 65.305c-12.89 0-23.377-10.487-23.377-23.377s10.487-23.376 23.377-23.376 23.376 10.487 23.376 23.376-10.487 23.377-23.376 23.377z" fill="#fa759e"/><circle cx="62.004" cy="41.928" fill="#d4fbff" r="18.576"/><g><path d="m78.081 41.928c0 8.866-7.218 16.083-16.083 16.083v-3.746c6.805 0 12.337-5.532 12.337-12.337z" fill="#fa759e"/><path d="m78.081 41.928h-3.746c0-6.806-5.532-12.337-12.337-12.337v-3.746c8.866 0 16.083 7.217 16.083 16.083z" fill="#ffd7e5"/><path d="m61.998 25.845v3.746c-6.793 0-12.325 5.532-12.325 12.337h-3.746c0-8.866 7.205-16.083 16.071-16.083z" fill="#0089ef"/><path d="m61.998 54.265v3.746c-8.866 0-16.071-7.218-16.071-16.083h3.746c0 6.805 5.532 12.337 12.325 12.337z" fill="#6dc9f7"/></g><circle cx="62.004" cy="41.406" fill="#fa759e" r="2.611"/></g><g><path d="m87.355 16.087c-5.771-7.963-15.066-12.718-24.865-12.718-8.571 0-16.757 3.638-22.536 9.879v-2.069c0-1.01-.819-1.829-1.829-1.829s-1.829.819-1.829 1.829v6.816c0 1.01.819 1.829 1.829 1.829h6.815c1.01 0 1.829-.819 1.829-1.829s-.819-1.829-1.829-1.829h-2.683c5.109-5.761 12.489-9.141 20.232-9.141 8.63 0 16.819 4.189 21.904 11.208.357.494.915.755 1.482.755.371 0 .747-.113 1.071-.348.82-.591 1.002-1.735.409-2.553z" fill="#6dc9f7"/><g fill="#3a2c60"><path d="m101.607 40.929h-15.251c-.526-12.979-11.244-23.378-24.351-23.378s-23.826 10.398-24.353 23.378h-15.258c-3.072 0-5.571 2.5-5.571 5.572v69.559c0 3.072 2.499 5.571 5.571 5.571h79.213c3.072 0 5.571-2.499 5.571-5.571v-35.977c0-.553-.447-1-1-1s-1 .447-1 1v35.977c0 1.969-1.603 3.571-3.571 3.571h-79.213c-1.969 0-3.571-1.603-3.571-3.571v-69.559c0-1.97 1.603-3.572 3.571-3.572h15.259c.527 12.979 11.246 23.376 24.353 23.376 13.106 0 23.823-10.397 24.351-23.376h15.251c1.969 0 3.571 1.603 3.571 3.572v17.499c0 .553.447 1 1 1s1-.447 1-1v-17.499c-.001-3.072-2.5-5.572-5.572-5.572zm-39.602 23.376c-12.339 0-22.378-10.038-22.378-22.377s10.039-22.377 22.378-22.377c12.338 0 22.376 10.038 22.376 22.377s-10.038 22.377-22.376 22.377z"/><path d="m106.178 67.25c-.553 0-1 .447-1 1v7.417c0 .553.447 1 1 1s1-.447 1-1v-7.417c0-.553-.447-1-1-1z"/><path d="m62.004 22.352c-10.794 0-19.576 8.782-19.576 19.576s8.782 19.576 19.576 19.576c10.795 0 19.577-8.782 19.577-19.576s-8.782-19.576-19.577-19.576zm0 37.152c-9.691 0-17.576-7.885-17.576-17.576s7.885-17.576 17.576-17.576c9.692 0 17.577 7.885 17.577 17.576s-7.885 17.576-17.577 17.576z"/><path d="m62.192 29.638c1.05 0 1.901-.851 1.901-1.901s-.851-1.901-1.901-1.901-1.901.851-1.901 1.901.851 1.901 1.901 1.901z"/><path d="m47.813 39.84c-1.05 0-1.901.851-1.901 1.901s.851 1.901 1.901 1.901 1.901-.851 1.901-1.901-.851-1.901-1.901-1.901z"/><path d="m61.817 54.218c-1.05 0-1.901.851-1.901 1.901s.851 1.901 1.901 1.901 1.901-.851 1.901-1.901-.851-1.901-1.901-1.901z"/><path d="m76.195 44.016c1.05 0 1.901-.851 1.901-1.901s-.851-1.901-1.901-1.901-1.901.851-1.901 1.901.851 1.901 1.901 1.901z"/><path d="m68.053 35.026-4.853 4.072c.611.317 1.075.865 1.284 1.532l4.853-4.072c.423-.354.479-.985.123-1.408-.353-.424-.982-.479-1.407-.124z"/><path d="m38.126 20.824h6.815c1.56 0 2.828-1.27 2.828-2.829s-1.269-2.828-2.828-2.828h-.323c4.828-4.563 11.223-7.141 17.872-7.141 8.311 0 16.196 4.035 21.094 10.794.879 1.215 2.73 1.516 3.951.63.611-.442 1.014-1.098 1.133-1.844s-.06-1.494-.503-2.105c-5.96-8.223-15.558-13.132-25.675-13.132-7.979 0-15.707 3.066-21.555 8.484-.162-1.407-1.36-2.503-2.81-2.503-1.56 0-2.829 1.27-2.829 2.829v6.815c.001 1.561 1.27 2.83 2.83 2.83zm-.829-9.644c0-.457.372-.829.829-.829s.828.372.828.829v2.068c0 .411.252.781.635.931.385.15.819.051 1.099-.251 5.625-6.075 13.572-9.559 21.802-9.559 9.478 0 18.471 4.601 24.056 12.306.13.179.182.398.147.616-.035.219-.152.41-.333.54-.18.131-.362.158-.483.158-.271 0-.516-.124-.673-.342-5.272-7.276-13.764-11.621-22.714-11.621-7.99 0-15.638 3.454-20.98 9.477-.261.295-.325.715-.164 1.074s.519.59.912.59h2.684c.457 0 .828.371.828.828s-.371.829-.828.829h-6.815c-.457 0-.829-.372-.829-.829v-6.815z"/></g></g></g></g></svg>