<?xml version="1.0" encoding="iso-8859-1"?>
<!-- Generator: Adobe Illustrator 19.0.0, SVG Export Plug-In . SVG Version: 6.00 Build 0)  -->
<svg version="1.1" id="Layer_1" xmlns="http://www.w3.org/2000/svg" xmlns:xlink="http://www.w3.org/1999/xlink" x="0px" y="0px"
	 viewBox="0 0 512 512" style="enable-background:new 0 0 512 512;" xml:space="preserve">
<polygon style="fill:#D5DCED;" points="199.61,284.672 199.61,378.137 312.4,378.137 312.4,284.672 501.961,284.672 
	501.961,227.328 312.4,227.328 312.4,133.863 199.61,133.863 199.61,227.328 10.039,227.328 10.039,284.672 "/>
<rect x="362.416" y="227.328" style="fill:#4F63B3;" width="139.545" height="57.344"/>
<rect x="199.61" y="133.863" style="fill:#D23C69;" width="112.791" height="244.274"/>
<rect x="10.039" y="227.328" style="fill:#4F63B3;" width="139.545" height="57.344"/>
<path d="M256,210.904c-5.545,0-10.039,4.495-10.039,10.039v9.625c0,5.545,4.495,10.039,10.039,10.039
	c5.545,0,10.039-4.495,10.039-10.039v-9.625C266.039,215.398,261.545,210.904,256,210.904z"/>
<path d="M501.961,217.289h-15.34v-2.731c0-5.545-4.495-10.039-10.039-10.039c-5.545,0-10.039,4.495-10.039,10.039v2.731h-24.315
	v-2.731c0-5.545-4.495-10.039-10.039-10.039s-10.039,4.495-10.039,10.039v2.731h-24.315v-2.731c0-5.545-4.495-10.039-10.039-10.039
	c-5.545,0-10.039,4.495-10.039,10.039v2.731H322.44v-83.426c0-5.545-4.495-10.039-10.039-10.039H199.61
	c-5.545,0-10.039,4.495-10.039,10.039v83.426h-55.326v-2.731c0-5.545-4.495-10.039-10.039-10.039s-10.039,4.495-10.039,10.039v2.731
	H89.851v-2.731c0-5.545-4.495-10.039-10.039-10.039c-5.545,0-10.039,4.495-10.039,10.039v2.731H45.458v-2.731
	c0-5.545-4.495-10.039-10.039-10.039s-10.039,4.495-10.039,10.039v2.731h-15.34C4.495,217.289,0,221.783,0,227.328v57.344
	c0,5.545,4.495,10.039,10.039,10.039h15.34v2.731c0,5.545,4.495,10.039,10.039,10.039s10.039-4.495,10.039-10.039v-2.731h24.315
	v2.731c0,5.545,4.495,10.039,10.039,10.039c5.545,0,10.039-4.495,10.039-10.039v-2.731h24.315v2.731
	c0,5.545,4.495,10.039,10.039,10.039s10.039-4.495,10.039-10.039v-2.731h55.326v83.426c0,5.545,4.495,10.039,10.039,10.039H312.4
	c5.545,0,10.039-4.495,10.039-10.039v-83.426h55.316v2.731c0,5.545,4.495,10.039,10.039,10.039c5.545,0,10.039-4.495,10.039-10.039
	v-2.731h24.315v2.731c0,5.545,4.495,10.039,10.039,10.039s10.039-4.495,10.039-10.039v-2.731h24.315v2.731
	c0,5.545,4.495,10.039,10.039,10.039c5.545,0,10.039-4.495,10.039-10.039v-2.731h15.34c5.545,0,10.039-4.495,10.039-10.039v-57.344
	C512,221.783,507.505,217.289,501.961,217.289z M20.078,237.367h119.467v37.266H20.078V237.367z M189.56,274.633h-29.937v-37.266
	h29.937V274.633z M302.361,368.098h-36.322V260.685c0-5.545-4.495-10.039-10.039-10.039c-5.545,0-10.039,4.495-10.039,10.039
	v107.413h-36.312V143.902h36.312v46.923c0,5.545,4.495,10.039,10.039,10.039c5.545,0,10.039-4.495,10.039-10.039v-46.923h36.322
	V368.098z M322.44,237.367h29.937v37.266H322.44V237.367z M491.922,274.633H372.455v-37.266h119.467V274.633z"/>
<g>
</g>
<g>
</g>
<g>
</g>
<g>
</g>
<g>
</g>
<g>
</g>
<g>
</g>
<g>
</g>
<g>
</g>
<g>
</g>
<g>
</g>
<g>
</g>
<g>
</g>
<g>
</g>
<g>
</g>
</svg>
